<svg xmlns="http://www.w3.org/2000/svg" width="105" height="30" viewBox="0 0 105 30">
    <g fill="#4C4948" fill-rule="evenodd">
        <path fill-rule="nonzero" d="M26 10.546a3.523 3.523 0 0 0-1.431-2.84L15.112.7a3.53 3.53 0 0 0-4.224 0L1.43 7.706A3.523 3.523 0 0 0 0 10.546v8.896c0 1.103.514 2.144 1.39 2.82l9.47 7.128c.368.281.788.486 1.237.603V18.797l-4.044 2.647a1.03 1.03 0 0 1-.556.173 1.003 1.003 0 1 1-.556-1.843l5.35-3.512a1.01 1.01 0 0 1 1.39.284c.114.182.17.395.16.61V30a3.541 3.541 0 0 0 1.285-.61l9.464-7.129a3.516 3.516 0 0 0 1.39-2.82l.02-8.895zm-6.677 5.085c-.186.287-.505.46-.848.458a1.03 1.03 0 0 1-.542-.16l-4.94-3.166-4.94 3.18a1.014 1.014 0 0 1-1.563-.79c-.02-.36.155-.704.458-.9l5.482-3.513a1.017 1.017 0 0 1 1.084 0l5.482 3.52a.977.977 0 0 1 .327 1.371zm.347-5.099a1.01 1.01 0 0 1-1.39.277l-5.287-3.505-5.28 3.505a1.037 1.037 0 0 1-.556.167.973.973 0 0 1-.834-.45A1.003 1.003 0 0 1 6.6 9.14l5.836-3.873a1.01 1.01 0 0 1 1.112 0l5.836 3.873a1.004 1.004 0 0 1 .285 1.392z"/>
        <path d="M34.809 23.111c.116.899 1.057 1.48 2.297 1.48 1.24 0 2.085-.574 2.085-1.383 0-.691-.525-1.099-1.808-1.382l-1.327-.297c-1.882-.408-2.772-1.272-2.772-2.654 0-1.714 1.576-2.875 3.8-2.875 2.224 0 3.763 1.154 3.763 2.854h-1.728c-.088-.905-.883-1.444-2.05-1.444-1.167 0-1.932.532-1.932 1.334 0 .65.518 1.022 1.772 1.306l1.174.249C40.154 20.755 41 21.556 41 23 41 24.839 39.44 26 36.974 26c-2.348 0-3.894-1.099-3.974-2.882l1.809-.007zM51.415 26v-7.1l-2.805 7.013h-1.213L44.592 18.9h-.05V26H43V16h2.006l2.966 7.542h.056L50.994 16H53v10z"/>
        <path fill-rule="nonzero" d="M60.295 23.419h-3.633L55.82 26H54l3.504-10h1.992L63 26h-1.863l-.842-2.581zm-3.247-1.381h2.854l-1.427-4.274-1.427 4.274zM66.622 26H65V16h3.605c1.97 0 3.139 1.2 3.139 3.11.057 1.261-.637 2.418-1.714 2.855L72 26h-1.839l-1.753-3.76h-1.786V26zm0-5.134h1.832a1.37 1.37 0 0 0 1.185-.43 1.69 1.69 0 0 0 .444-1.283 1.729 1.729 0 0 0-.477-1.283 1.405 1.405 0 0 0-1.198-.424h-1.786v3.42z"/>
        <path d="M75.71 26v-8.503H73V16h7v1.497h-2.704V26z"/>
        <path fill-rule="nonzero" d="M84.746 16.005a3.024 3.024 0 0 1 2.344.923c.62.638.95 1.519.906 2.423a3.3 3.3 0 0 1-.944 2.436 3.063 3.063 0 0 1-2.376.91h-1.953V26H81v-9.995h3.746zm-2.023 5.254h1.562a1.698 1.698 0 0 0 1.414-.47c.38-.368.58-.893.546-1.43 0-1.2-.697-1.887-1.953-1.887h-1.57v3.787z"/>
        <path d="M95 26h-6V16h6v1.497h-4.32V20.2h4.08v1.446h-4.08v2.892H95zM97 26V16h1.498l4.78 7.007h.063V16H105v10h-1.484l-4.788-7.014h-.062V26zM34 12.993V3h1.498l4.78 7h.063V3H42v10h-1.456l-4.788-7.014h-.09V13zM49.96 12.971H44V3h6v1.508h-4.353v2.698h4.08V8.65h-4.08v2.85h4.32V13z"/>
        <path fill-rule="nonzero" d="M56.5 3a4.283 4.283 0 0 1 1.887.401 4.25 4.25 0 0 1 1.412 1.083c.391.468.693 1.006.889 1.588.208.62.313 1.27.312 1.925.005.66-.1 1.315-.312 1.939a4.79 4.79 0 0 1-.89 1.594 4.14 4.14 0 0 1-1.411 1.076 4.72 4.72 0 0 1-3.774 0 4.14 4.14 0 0 1-1.412-1.076 4.908 4.908 0 0 1-.889-1.594A6.039 6.039 0 0 1 52 7.996a5.836 5.836 0 0 1 .312-1.924 4.79 4.79 0 0 1 .89-1.595A4.283 4.283 0 0 1 56.5 3zm0 1.498a2.418 2.418 0 0 0-1.249.304c-.342.19-.635.46-.855.786a3.807 3.807 0 0 0-.489 1.125 5.11 5.11 0 0 0-.156 1.284c.001.435.054.868.156 1.29.097.401.263.782.489 1.125.218.33.511.603.855.794.787.395 1.71.395 2.498 0 .34-.195.633-.466.855-.794a3.73 3.73 0 0 0 .489-1.125c.106-.421.158-.855.156-1.29-.001-.433-.054-.864-.156-1.284a3.563 3.563 0 0 0-.489-1.125A2.425 2.425 0 0 0 56.5 4.491v.007z"/>
    </g>
</svg>
