<svg xmlns="http://www.w3.org/2000/svg" width="140" height="10">
    <path fill="#17B6B0" fill-rule="evenodd" d="M4.88 5c0 1.632.803 3.067 2.027 3.979a4.691 4.691 0 0 1-2.206.566C2.105 9.545 0 7.466 0 4.901 0 2.335 2.105.256 4.701.256c.862 0 1.658.245 2.353.645C5.743 1.804 4.88 3.301 4.88 5z"/>
    <path fill="#1794B6" fill-rule="evenodd" d="M12.5 0C15.538 0 18 2.239 18 5s-2.462 5-5.5 5S7 7.761 7 5s2.462-5 5.5-5z"/>
    <path fill="#666" fill-rule="evenodd" d="M90.081 2.184c-.894 0-1.479.426-1.479 1.123 0 .745.704 1.029 1.42 1.312l1.204.508c1.038.438 1.789 1.076 1.789 2.353 0 1.394-1.168 2.529-3.089 2.529a4.398 4.398 0 0 1-3.125-1.277l.811-.945c.632.626 1.491 1.028 2.338 1.028 1.062 0 1.658-.496 1.658-1.229 0-.792-.596-1.04-1.408-1.395l-1.217-.52c-.846-.354-1.789-1.016-1.789-2.281 0-1.371 1.217-2.399 2.887-2.399 1.026 0 1.992.425 2.66 1.099l-.728.875c-.548-.485-1.157-.781-1.932-.781zm-9.816-1.028h5.189v1.146h-3.805v2.424h3.221v1.158h-3.221v2.813h3.936v1.158h-5.32V1.156zm-4.101 8.699H74.78V2.302h-2.577V1.156h6.549v1.146h-2.588v7.553zm-8.492.154c-2.255 0-3.817-1.738-3.817-4.539 0-2.801 1.562-4.479 3.817-4.479 2.254 0 3.829 1.678 3.829 4.479s-1.575 4.539-3.829 4.539zm0-7.825c-1.455 0-2.398 1.241-2.398 3.286s.943 3.345 2.398 3.345c1.456 0 2.409-1.3 2.409-3.345s-.953-3.286-2.409-3.286zM57.69 4.726l-.919-1.821h-.059c.071.899.178 1.903.178 2.849v4.101h-1.312V1.156h1.42l2.911 5.106.918 1.844h.06c-.072-.898-.179-1.951-.179-2.896V1.156h1.312v8.699H60.6l-2.91-5.129zm-10.447 5.283c-2.255 0-3.817-1.738-3.817-4.539 0-2.801 1.562-4.479 3.817-4.479 2.254 0 3.829 1.678 3.829 4.479s-1.575 4.539-3.829 4.539zm0-7.825c-1.455 0-2.398 1.241-2.398 3.286s.943 3.345 2.398 3.345 2.409-1.3 2.409-3.345-.954-3.286-2.409-3.286zM36.747 1.156h5.189v1.146h-3.805v2.424h3.22v1.158h-3.22v2.813h3.937v1.158h-5.321V1.156zm-6.642 3.57l-.918-1.821h-.06c.071.899.179 1.903.179 2.849v4.101h-1.312V1.156h1.419l2.911 5.106.918 1.844h.06c-.072-.898-.179-1.951-.179-2.896V1.156h1.312v8.699h-1.419l-2.911-5.129z"/>
    <path fill="#1794B6" fill-rule="evenodd" d="M136.161 10.009c-2.264 0-3.833-1.738-3.833-4.539 0-2.801 1.569-4.479 3.833-4.479 2.264 0 3.846 1.678 3.846 4.479s-1.582 4.539-3.846 4.539zm0-7.825c-1.461 0-2.408 1.241-2.408 3.286s.947 3.345 2.408 3.345c1.462 0 2.42-1.3 2.42-3.345s-.958-3.286-2.42-3.286zm-7.055-1.028h1.389v8.699h-1.389V1.156zm-6.012 8.699h-2.36V1.156h2.288c2.707 0 4.253 1.477 4.253 4.314 0 2.825-1.546 4.385-4.181 4.385zm-.168-7.588h-.803v6.465h.803c1.893 0 2.911-1.099 2.911-3.262 0-2.175-1.018-3.203-2.911-3.203zm-7.737 7.742c-1.953 0-3.283-1.052-3.283-3.889V1.156h1.39v5.059c0 1.962.79 2.6 1.893 2.6 1.114 0 1.929-.638 1.929-2.6V1.156h1.341V6.12c0 2.837-1.317 3.889-3.27 3.889zm-7.354-.154h-1.389V2.302h-2.588V1.156h6.577v1.146h-2.6v7.553zm-6.384-4.728c1.042.438 1.797 1.076 1.797 2.353 0 1.394-1.174 2.529-3.103 2.529a4.43 4.43 0 0 1-3.139-1.277l.815-.945c.634.626 1.497 1.028 2.348 1.028 1.066 0 1.665-.496 1.665-1.229 0-.792-.599-1.04-1.414-1.395l-1.222-.52c-.85-.354-1.796-1.016-1.796-2.281 0-1.371 1.221-2.399 2.899-2.399 1.03 0 2 .425 2.671 1.099l-.731.875c-.551-.485-1.162-.781-1.94-.781-.899 0-1.486.426-1.486 1.123 0 .745.707 1.029 1.426 1.312l1.21.508z"/>
</svg>
